<?xml version="1.0" encoding="UTF-8" standalone="no"?>
<!-- Created with Inkscape (http://www.inkscape.org/) -->

<svg
   xmlns:dc="http://purl.org/dc/elements/1.1/"
   xmlns:cc="http://creativecommons.org/ns#"
   xmlns:rdf="http://www.w3.org/1999/02/22-rdf-syntax-ns#"
   xmlns:svg="http://www.w3.org/2000/svg"
   xmlns="http://www.w3.org/2000/svg"
   xmlns:sodipodi="http://sodipodi.sourceforge.net/DTD/sodipodi-0.dtd"
   xmlns:inkscape="http://www.inkscape.org/namespaces/inkscape"
   id="svg4257"
   version="1.1"
   inkscape:version="0.91 r13725"
   xml:space="preserve"
   width="1500"
   height="1500"
   viewBox="0 0 1500 1500"
   sodipodi:docname="drawing.svg"><metadata
     id="metadata4263"><rdf:RDF><cc:Work
         rdf:about=""><dc:format>image/svg+xml</dc:format><dc:type
           rdf:resource="http://purl.org/dc/dcmitype/StillImage" /><dc:title></dc:title></cc:Work></rdf:RDF></metadata><defs
     id="defs4261"><inkscape:path-effect
       effect="powerstroke"
       id="path-effect5661"
       is_visible="true"
       offset_points="0.024728688,0.20583644"
       sort_points="true"
       interpolator_type="Linear"
       interpolator_beta="0.2"
       start_linecap_type="zerowidth"
       linejoin_type="round"
       miter_limit="4"
       end_linecap_type="zerowidth"
       cusp_linecap_type="round" /><clipPath
       clipPathUnits="userSpaceOnUse"
       id="clipPath4273"><path
         d="M 100,640 C 260,533.333 393.333,525.333 500,616 l 0,0 c -93.333,-6.667 -182.934,-1.333 -268.8,16 l 0,0 c 85.866,-13.333 175.467,-16 268.8,-8 l 0,0 c -106.25,48.167 -193.685,72.25 -262.305,72.25 l 0,0 C 177.148,696.25 131.25,677.5 100,640"
         id="path4275"
         inkscape:connector-curvature="0" /></clipPath><linearGradient
       x1="0"
       y1="0"
       x2="1"
       y2="0"
       gradientUnits="userSpaceOnUse"
       gradientTransform="matrix(-400,-6.2e-6,1.75e-5,-142.73648,500,624.875)"
       spreadMethod="pad"
       id="linearGradient4281"><stop
         style="stop-opacity:1;stop-color:#c81414"
         offset="0"
         id="stop4283" /><stop
         style="stop-opacity:1;stop-color:#dc2828"
         offset="1"
         id="stop4285" /></linearGradient><clipPath
       clipPathUnits="userSpaceOnUse"
       id="clipPath4293"><path
         d="m 176.988,887.32 c 85.23,-172.375 196.7,-245.97 334.409,-220.784 l 0,0 c -84.162,40.893 -159.091,90.312 -224.788,148.256 l 0,0 c 67.697,-54.48 143.959,-101.59 228.789,-141.328 l 0,0 C 408.965,822.053 312.958,896.35 227.404,896.358 l 0,0 c -17.233,0.002 -34.03,-3.011 -50.416,-9.038"
         id="path4295"
         inkscape:connector-curvature="0" /></clipPath><linearGradient
       x1="0"
       y1="0"
       x2="1"
       y2="0"
       gradientUnits="userSpaceOnUse"
       gradientTransform="matrix(-346.41016,200,-71.368225,-123.61343,515.75,674.25)"
       spreadMethod="pad"
       id="linearGradient4301"><stop
         style="stop-opacity:1;stop-color:#c8aa14"
         offset="0"
         id="stop4303" /><stop
         style="stop-opacity:1;stop-color:#dcbe28"
         offset="1"
         id="stop4305" /></linearGradient><clipPath
       clipPathUnits="userSpaceOnUse"
       id="clipPath4313"><path
         d="M 546.536,704.603 C 494.095,782.098 453.914,862.361 425.992,945.39 l 0,0 c 31.387,-81.029 73.877,-159.958 127.472,-236.788 l 0,0 c -21.48,218.539 -83.528,336.676 -186.143,354.41 l 0,0 C 354.945,871.115 414.682,751.646 546.536,704.603"
         id="path4315"
         inkscape:connector-curvature="0" /></clipPath><linearGradient
       x1="0"
       y1="0"
       x2="1"
       y2="0"
       gradientUnits="userSpaceOnUse"
       gradientTransform="matrix(-200,346.41016,-123.61341,-71.368256,554.625,708.5)"
       spreadMethod="pad"
       id="linearGradient4321"><stop
         style="stop-opacity:1;stop-color:#50c814"
         offset="0"
         id="stop4323" /><stop
         style="stop-opacity:1;stop-color:#64dc28"
         offset="1"
         id="stop4325" /></linearGradient><clipPath
       clipPathUnits="userSpaceOnUse"
       id="clipPath4333"><path
         d="m 596,720 c -6.667,93.334 -1.333,182.934 16,268.799 l 0,0 C 598.667,902.934 596,813.334 604,720 l 0,0 c 90.667,200 96,333.334 16,400 l 0,0 C 513.333,960 505.333,826.666 596,720"
         id="path4335"
         inkscape:connector-curvature="0" /></clipPath><linearGradient
       x1="0"
       y1="0"
       x2="1"
       y2="0"
       gradientUnits="userSpaceOnUse"
       gradientTransform="matrix(-6.2e-6,400,-142.73648,-1.75e-5,604.875,719.75)"
       spreadMethod="pad"
       id="linearGradient4341"><stop
         style="stop-opacity:1;stop-color:#14c86e"
         offset="0"
         id="stop4343" /><stop
         style="stop-opacity:1;stop-color:#28dc82"
         offset="1"
         id="stop4345" /></linearGradient><clipPath
       clipPathUnits="userSpaceOnUse"
       id="clipPath4353"><path
         d="m 646.536,708.602 c 40.893,84.163 90.312,159.093 148.256,224.788 l 0,0 C 740.311,865.695 693.203,789.431 653.464,704.603 l 0,0 c 178.519,127.871 249.806,240.675 213.856,338.41 l 0,0 C 694.944,957.782 621.349,846.312 646.536,708.602"
         id="path4355"
         inkscape:connector-curvature="0" /></clipPath><linearGradient
       x1="0"
       y1="0"
       x2="1"
       y2="0"
       gradientUnits="userSpaceOnUse"
       gradientTransform="matrix(200,346.41016,-123.61343,71.368225,654.25,704.25)"
       spreadMethod="pad"
       id="linearGradient4361"><stop
         style="stop-opacity:1;stop-color:#148cc8"
         offset="0"
         id="stop4363" /><stop
         style="stop-opacity:1;stop-color:#28a0dc"
         offset="1"
         id="stop4365" /></linearGradient><clipPath
       clipPathUnits="userSpaceOnUse"
       id="clipPath4373"><path
         d="m 684.602,673.464 c 77.496,52.44 157.758,92.622 240.789,120.544 l 0,0 C 844.36,762.621 765.432,720.13 688.603,666.536 l 0,0 c 218.538,21.481 336.674,83.529 354.41,186.144 l 0,0 c -16.456,1.061 -32.408,1.592 -47.799,1.593 l 0,0 C 831.129,854.28 727.611,794.01 684.602,673.464"
         id="path4375"
         inkscape:connector-curvature="0" /></clipPath><linearGradient
       x1="0"
       y1="0"
       x2="1"
       y2="0"
       gradientUnits="userSpaceOnUse"
       gradientTransform="matrix(346.41016,200,-71.368256,123.61341,688.75,665.6875)"
       spreadMethod="pad"
       id="linearGradient4381"><stop
         style="stop-opacity:1;stop-color:#3214c8"
         offset="0"
         id="stop4383" /><stop
         style="stop-opacity:1;stop-color:#4628dc"
         offset="1"
         id="stop4385" /></linearGradient><clipPath
       clipPathUnits="userSpaceOnUse"
       id="clipPath4393"><path
         d="m 700,624 c 93.333,6.667 182.933,1.333 268.8,-16 l 0,0 c -85.867,13.333 -175.467,16 -268.8,8 l 0,0 c 200,-90.667 333.333,-96 400,-16 l 0,0 c -86.485,57.657 -165.182,86.485 -236.084,86.487 l 0,0 C 803.646,686.488 749.011,665.659 700,624"
         id="path4395"
         inkscape:connector-curvature="0" /></clipPath><linearGradient
       x1="0"
       y1="0"
       x2="1"
       y2="0"
       gradientUnits="userSpaceOnUse"
       gradientTransform="matrix(400,6.2e-6,-1.75e-5,142.73648,700,615.125)"
       spreadMethod="pad"
       id="linearGradient4401"><stop
         style="stop-opacity:1;stop-color:#c814c8"
         offset="0"
         id="stop4403" /><stop
         style="stop-opacity:1;stop-color:#dc28dc"
         offset="1"
         id="stop4405" /></linearGradient><clipPath
       clipPathUnits="userSpaceOnUse"
       id="clipPath4413"><path
         d="m 16,156.4 c 64,-34.133 117.333,-36.693 160,-7.68 l 0,0 c -37.333,-2.133 -73.173,-0.427 -107.52,5.12 l 0,0 c 34.347,-4.267 70.187,-5.12 107.52,-2.56 l 0,0 C 133.505,166.692 98.525,174.398 71.078,174.4 l 0,0 C 46.855,174.402 28.502,168.402 16,156.4"
         id="path4415"
         inkscape:connector-curvature="0" /></clipPath><linearGradient
       x1="0"
       y1="0"
       x2="1"
       y2="0"
       gradientUnits="userSpaceOnUse"
       gradientTransform="matrix(-160,-2e-6,7e-6,-45.675678,176,151.53125)"
       spreadMethod="pad"
       id="linearGradient4421"><stop
         style="stop-opacity:1;stop-color:#c8c814"
         offset="0"
         id="stop4423" /><stop
         style="stop-opacity:1;stop-color:#dcdc28"
         offset="1"
         id="stop4425" /></linearGradient><clipPath
       clipPathUnits="userSpaceOnUse"
       id="clipPath4433"><path
         d="m 43.852,247.543 c 38.358,-61.561 83.266,-90.444 134.723,-86.652 l 0,0 c -33.398,16.82 -63.583,36.217 -90.554,58.195 l 0,0 c 27.611,-20.869 58.223,-39.527 91.834,-55.977 l 0,0 c -48.229,57.343 -89.143,86.016 -122.734,86.018 l 0,0 c -4.559,0 -8.98,-0.528 -13.269,-1.584"
         id="path4435"
         inkscape:connector-curvature="0" /></clipPath><linearGradient
       x1="0"
       y1="0"
       x2="1"
       y2="0"
       gradientUnits="userSpaceOnUse"
       gradientTransform="matrix(-138.56406,80,-22.837833,-39.556297,179.9375,163.375)"
       spreadMethod="pad"
       id="linearGradient4441"><stop
         style="stop-opacity:1;stop-color:#8cc814"
         offset="0"
         id="stop4443" /><stop
         style="stop-opacity:1;stop-color:#96dc28"
         offset="1"
         id="stop4445" /></linearGradient><clipPath
       clipPathUnits="userSpaceOnUse"
       id="clipPath4453"><path
         d="m 186.891,170.144 c -20.513,31.265 -36.955,63.157 -49.326,95.675 l 0,0 c 13.479,-31.878 30.659,-63.342 51.543,-94.394 l 0,0 c -14.873,83.788 -40.062,130.83 -75.566,141.123 l 0,0 c 2.44,-72.491 26.89,-119.96 73.349,-142.404"
         id="path4455"
         inkscape:connector-curvature="0" /></clipPath><linearGradient
       x1="0"
       y1="0"
       x2="1"
       y2="0"
       gradientUnits="userSpaceOnUse"
       gradientTransform="matrix(-80,138.56406,-39.55629,-22.837845,189.34375,171.625)"
       spreadMethod="pad"
       id="linearGradient4461"><stop
         style="stop-opacity:1;stop-color:#50c814"
         offset="0"
         id="stop4463" /><stop
         style="stop-opacity:1;stop-color:#64dc28"
         offset="1"
         id="stop4465" /></linearGradient><clipPath
       clipPathUnits="userSpaceOnUse"
       id="clipPath4473"><path
         d="m 198.72,174 c -2.133,37.333 -0.427,73.174 5.12,107.519 l 0,0 C 199.573,247.174 198.72,211.333 201.28,174 l 0,0 c 29.014,80 30.72,133.333 5.12,160 l 0,0 C 172.266,270 169.707,216.667 198.72,174"
         id="path4475"
         inkscape:connector-curvature="0" /></clipPath><linearGradient
       x1="0"
       y1="0"
       x2="1"
       y2="0"
       gradientUnits="userSpaceOnUse"
       gradientTransform="matrix(-2e-6,160,-45.675678,-7e-6,201.59375,174)"
       spreadMethod="pad"
       id="linearGradient4481"><stop
         style="stop-opacity:1;stop-color:#14c814"
         offset="0"
         id="stop4483" /><stop
         style="stop-opacity:1;stop-color:#28dc28"
         offset="1"
         id="stop4485" /></linearGradient><clipPath
       clipPathUnits="userSpaceOnUse"
       id="clipPath4493"><path
         d="m 210.892,171.425 c 16.819,33.398 36.217,63.583 58.194,90.554 l 0,0 c -20.869,-27.611 -39.527,-58.224 -55.978,-91.835 l 0,0 c 65.127,54.776 93.272,100.111 84.435,136.004 l 0,0 C 235.983,267.79 207.099,222.881 210.892,171.425"
         id="path4495"
         inkscape:connector-curvature="0" /></clipPath><linearGradient
       x1="0"
       y1="0"
       x2="1"
       y2="0"
       gradientUnits="userSpaceOnUse"
       gradientTransform="matrix(80,138.56406,-39.556297,22.837833,213.25,170)"
       spreadMethod="pad"
       id="linearGradient4501"><stop
         style="stop-opacity:1;stop-color:#14c850"
         offset="0"
         id="stop4503" /><stop
         style="stop-opacity:1;stop-color:#28dc64"
         offset="1"
         id="stop4505" /></linearGradient><clipPath
       clipPathUnits="userSpaceOnUse"
       id="clipPath4513"><path
         d="m 220.145,163.109 c 31.265,20.514 63.156,36.956 95.674,49.325 l 0,0 c -31.878,-13.478 -63.343,-30.658 -94.394,-51.543 l 0,0 c 83.788,14.875 130.83,40.063 141.124,75.566 l 0,0 c -72.493,-2.439 -119.96,-26.888 -142.404,-73.348"
         id="path4515"
         inkscape:connector-curvature="0" /></clipPath><linearGradient
       x1="0"
       y1="0"
       x2="1"
       y2="0"
       gradientUnits="userSpaceOnUse"
       gradientTransform="matrix(138.56406,80,-22.837845,39.55629,221.75,160.6875)"
       spreadMethod="pad"
       id="linearGradient4521"><stop
         style="stop-opacity:1;stop-color:#14c88c"
         offset="0"
         id="stop4523" /><stop
         style="stop-opacity:1;stop-color:#28dca0"
         offset="1"
         id="stop4525" /></linearGradient><clipPath
       clipPathUnits="userSpaceOnUse"
       id="clipPath4533"><path
         d="m 224,151.28 c 37.334,2.133 73.174,0.427 107.52,-5.12 l 0,0 c -34.346,4.267 -70.186,5.12 -107.52,2.56 l 0,0 C 304,119.707 357.333,118 384,143.6 l 0,0 c -34.593,18.45 -66.073,27.675 -94.434,27.676 l 0,0 c -24.108,0 -45.962,-6.665 -65.566,-19.996"
         id="path4535"
         inkscape:connector-curvature="0" /></clipPath><linearGradient
       x1="0"
       y1="0"
       x2="1"
       y2="0"
       gradientUnits="userSpaceOnUse"
       gradientTransform="matrix(160,2e-6,-7e-6,45.675678,224,148.46875)"
       spreadMethod="pad"
       id="linearGradient4541"><stop
         style="stop-opacity:1;stop-color:#14c8c8"
         offset="0"
         id="stop4543" /><stop
         style="stop-opacity:1;stop-color:#28dcdc"
         offset="1"
         id="stop4545" /></linearGradient><clipPath
       clipPathUnits="userSpaceOnUse"
       id="clipPath4553"><path
         d="m 412.5,157.5 c 60,-40 110,-43 150,-9 l 0,0 c -35,-2.5 -68.6,-0.5 -100.8,6 l 0,0 c 32.2,-5 65.8,-6 100.8,-3 l 0,0 c -39.844,18.062 -72.632,27.094 -98.364,27.094 l 0,0 c -22.705,0 -39.917,-7.032 -51.636,-21.094"
         id="path4555"
         inkscape:connector-curvature="0" /></clipPath><linearGradient
       x1="0"
       y1="0"
       x2="1"
       y2="0"
       gradientUnits="userSpaceOnUse"
       gradientTransform="matrix(-150,-2.3e-6,6.6e-6,-53.52618,562.625,151.8125)"
       spreadMethod="pad"
       id="linearGradient4561"><stop
         style="stop-opacity:1;stop-color:#646464"
         offset="0"
         id="stop4563" /><stop
         style="stop-opacity:1;stop-color:#646464"
         offset="1"
         id="stop4565" /></linearGradient><clipPath
       clipPathUnits="userSpaceOnUse"
       id="clipPath4573"><path
         d="m 441.37,250.245 c 31.962,-64.641 73.763,-92.239 125.404,-82.794 l 0,0 c -31.561,15.335 -59.66,33.867 -84.296,55.596 l 0,0 c 25.387,-20.43 53.985,-38.096 85.796,-52.998 l 0,0 c -39.912,55.721 -75.915,83.582 -107.998,83.585 l 0,0 c -6.463,0.001 -12.761,-1.129 -18.906,-3.389"
         id="path4575"
         inkscape:connector-curvature="0" /></clipPath><linearGradient
       x1="0"
       y1="0"
       x2="1"
       y2="0"
       gradientUnits="userSpaceOnUse"
       gradientTransform="matrix(-129.90381,75,-26.763084,-46.355034,568.375,170.3125)"
       spreadMethod="pad"
       id="linearGradient4581"><stop
         style="stop-opacity:1;stop-color:#646464"
         offset="0"
         id="stop4583" /><stop
         style="stop-opacity:1;stop-color:#646464"
         offset="1"
         id="stop4585" /></linearGradient><clipPath
       clipPathUnits="userSpaceOnUse"
       id="clipPath4593"><path
         d="m 579.951,181.725 c -19.665,29.062 -34.733,59.161 -45.204,90.296 l 0,0 c 11.77,-30.385 27.704,-59.984 47.801,-88.795 l 0,0 c -8.054,81.952 -31.322,126.253 -69.803,132.903 l 0,0 c -4.64,-71.961 17.761,-116.762 67.206,-134.404"
         id="path4595"
         inkscape:connector-curvature="0" /></clipPath><linearGradient
       x1="0"
       y1="0"
       x2="1"
       y2="0"
       gradientUnits="userSpaceOnUse"
       gradientTransform="matrix(-75,129.90381,-46.355026,-26.763096,582.78125,183.25)"
       spreadMethod="pad"
       id="linearGradient4601"><stop
         style="stop-opacity:1;stop-color:#646464"
         offset="0"
         id="stop4603" /><stop
         style="stop-opacity:1;stop-color:#646464"
         offset="1"
         id="stop4605" /></linearGradient><clipPath
       clipPathUnits="userSpaceOnUse"
       id="clipPath4613"><path
         d="m 598.5,187.5 c -2.5,35 -0.5,68.599 6,100.8 l 0,0 c -5,-32.201 -6,-65.8 -3,-100.8 l 0,0 c 34,75 36,125 6,150 l 0,0 c -40,-60 -43,-110 -9,-150"
         id="path4615"
         inkscape:connector-curvature="0" /></clipPath><linearGradient
       x1="0"
       y1="0"
       x2="1"
       y2="0"
       gradientUnits="userSpaceOnUse"
       gradientTransform="matrix(-2.3e-6,150,-53.52618,-6.6e-6,601.84375,187.375)"
       spreadMethod="pad"
       id="linearGradient4621"><stop
         style="stop-opacity:1;stop-color:#646464"
         offset="0"
         id="stop4623" /><stop
         style="stop-opacity:1;stop-color:#646464"
         offset="1"
         id="stop4625" /></linearGradient><clipPath
       clipPathUnits="userSpaceOnUse"
       id="clipPath4633"><path
         d="m 617.451,183.226 c 15.335,31.561 33.867,59.66 55.596,84.295 l 0,0 c -20.43,-25.385 -38.096,-53.984 -52.998,-85.796 l 0,0 c 66.945,47.952 93.676,90.254 80.196,126.905 l 0,0 C 635.604,276.668 608.006,234.868 617.451,183.226"
         id="path4635"
         inkscape:connector-curvature="0" /></clipPath><linearGradient
       x1="0"
       y1="0"
       x2="1"
       y2="0"
       gradientUnits="userSpaceOnUse"
       gradientTransform="matrix(75,129.90381,-46.355034,26.763084,620.3125,181.5)"
       spreadMethod="pad"
       id="linearGradient4641"><stop
         style="stop-opacity:1;stop-color:#646464"
         offset="0"
         id="stop4643" /><stop
         style="stop-opacity:1;stop-color:#646464"
         offset="1"
         id="stop4645" /></linearGradient><clipPath
       clipPathUnits="userSpaceOnUse"
       id="clipPath4653"><path
         d="m 631.725,170.049 c 29.062,19.665 59.161,34.733 90.296,45.204 l 0,0 c -30.385,-11.769 -59.984,-27.704 -88.795,-47.802 l 0,0 c 81.952,8.055 126.253,31.323 132.904,69.804 l 0,0 c -6.172,0.398 -12.152,0.597 -17.923,0.598 l 0,0 c -61.532,0.002 -100.353,-22.599 -116.482,-67.804"
         id="path4655"
         inkscape:connector-curvature="0" /></clipPath><linearGradient
       x1="0"
       y1="0"
       x2="1"
       y2="0"
       gradientUnits="userSpaceOnUse"
       gradientTransform="matrix(129.90381,75,-26.763096,46.355026,633.375,167.25)"
       spreadMethod="pad"
       id="linearGradient4661"><stop
         style="stop-opacity:1;stop-color:#646464"
         offset="0"
         id="stop4663" /><stop
         style="stop-opacity:1;stop-color:#646464"
         offset="1"
         id="stop4665" /></linearGradient><clipPath
       clipPathUnits="userSpaceOnUse"
       id="clipPath4673"><path
         d="m 637.5,151.5 c 35,2.5 68.599,0.5 100.8,-6 l 0,0 c -32.201,5 -65.8,6 -100.8,3 l 0,0 c 75,-34 125,-36 150,-6 l 0,0 c -32.432,21.621 -61.943,32.432 -88.532,32.432 l 0,0 c -22.601,0.001 -43.089,-7.81 -61.468,-23.432"
         id="path4675"
         inkscape:connector-curvature="0" /></clipPath><linearGradient
       x1="0"
       y1="0"
       x2="1"
       y2="0"
       gradientUnits="userSpaceOnUse"
       gradientTransform="matrix(150,2.3e-6,-6.6e-6,53.52618,637.625,148.1875)"
       spreadMethod="pad"
       id="linearGradient4681"><stop
         style="stop-opacity:1;stop-color:#646464"
         offset="0"
         id="stop4683" /><stop
         style="stop-opacity:1;stop-color:#646464"
         offset="1"
         id="stop4685" /></linearGradient><clipPath
       clipPathUnits="userSpaceOnUse"
       id="clipPath4693"><path
         d="m 814,156.974 c 62,-37.198 113.667,-39.988 155,-8.369 l 0,0 c -36.167,-2.324 -70.886,-0.465 -104.16,5.579 l 0,0 c 33.274,-4.649 67.993,-5.579 104.16,-2.79 l 0,0 c -41.172,16.799 -75.053,25.198 -101.643,25.198 l 0,0 c -23.462,0 -41.248,-6.539 -53.357,-19.618"
         id="path4695"
         inkscape:connector-curvature="0" /></clipPath><linearGradient
       x1="0"
       y1="0"
       x2="1"
       y2="0"
       gradientUnits="userSpaceOnUse"
       gradientTransform="matrix(-155,-2.2e-6,6.8e-6,-49.779343,969.125,151.6875)"
       spreadMethod="pad"
       id="linearGradient4701"><stop
         style="stop-opacity:1;stop-color:#00a028"
         offset="0"
         id="stop4703" /><stop
         style="stop-opacity:1;stop-color:#14b43c"
         offset="1"
         id="stop4705" /></linearGradient><clipPath
       clipPathUnits="userSpaceOnUse"
       id="clipPath4713"><path
         d="m 842.407,249.041 c 35.093,-63.217 78.442,-91.465 130.049,-84.749 l 0,0 c -32.484,16.069 -61.622,35.04 -87.415,56.912 l 0,0 c 26.49,-20.663 56.094,-38.829 88.809,-54.496 l 0,0 c -43.847,56.519 -82.229,84.78 -115.132,84.784 l 0,0 c -5.598,0.001 -11.03,-0.816 -16.311,-2.451"
         id="path4715"
         inkscape:connector-curvature="0" /></clipPath><linearGradient
       x1="0"
       y1="0"
       x2="1"
       y2="0"
       gradientUnits="userSpaceOnUse"
       gradientTransform="matrix(-134.23393,77.5,-24.889666,-43.11018,974.0625,166.9375)"
       spreadMethod="pad"
       id="linearGradient4721"><stop
         style="stop-opacity:1;stop-color:#00a028"
         offset="0"
         id="stop4723" /><stop
         style="stop-opacity:1;stop-color:#14b43c"
         offset="1"
         id="stop4725" /></linearGradient><clipPath
       clipPathUnits="userSpaceOnUse"
       id="clipPath4733"><path
         d="m 983.292,176.15 c -20.097,30.158 -35.846,61.157 -47.248,92.994 l 0,0 c 12.61,-31.14 29.165,-61.673 49.664,-91.6 l 0,0 c -11.366,82.928 -35.589,128.602 -72.667,137.024 l 0,0 c -1.217,-72.293 22.2,-118.433 70.251,-138.418"
         id="path4735"
         inkscape:connector-curvature="0" /></clipPath><linearGradient
       x1="0"
       y1="0"
       x2="1"
       y2="0"
       gradientUnits="userSpaceOnUse"
       gradientTransform="matrix(-77.5,134.23393,-43.110172,-24.889677,986,177.625)"
       spreadMethod="pad"
       id="linearGradient4741"><stop
         style="stop-opacity:1;stop-color:#00a028"
         offset="0"
         id="stop4743" /><stop
         style="stop-opacity:1;stop-color:#14b43c"
         offset="1"
         id="stop4745" /></linearGradient><clipPath
       clipPathUnits="userSpaceOnUse"
       id="clipPath4753"><path
         d="m 998.606,181 c -2.326,36.167 -0.466,70.887 5.579,104.16 l 0,0 c -4.649,-33.273 -5.579,-67.993 -2.79,-104.16 l 0,0 c 31.62,77.5 33.48,129.167 5.58,155 l 0,0 c -37.2,-62 -39.99,-113.667 -8.369,-155"
         id="path4755"
         inkscape:connector-curvature="0" /></clipPath><linearGradient
       x1="0"
       y1="0"
       x2="1"
       y2="0"
       gradientUnits="userSpaceOnUse"
       gradientTransform="matrix(-2.2e-6,155,-49.779343,-6.8e-6,1001.6875,181)"
       spreadMethod="pad"
       id="linearGradient4761"><stop
         style="stop-opacity:1;stop-color:#c81414"
         offset="0"
         id="stop4763" /><stop
         style="stop-opacity:1;stop-color:#dc2828"
         offset="1"
         id="stop4765" /></linearGradient><clipPath
       clipPathUnits="userSpaceOnUse"
       id="clipPath4773"><path
         d="m 1014.292,177.544 c 16.069,32.485 35.04,61.622 56.912,87.415 l 0,0 c -20.663,-26.491 -38.829,-56.094 -54.496,-88.809 l 0,0 c 66.134,51.306 93.578,95.121 82.333,131.443 l 0,0 c -63.217,-35.093 -91.466,-78.442 -84.749,-130.049"
         id="path4775"
         inkscape:connector-curvature="0" /></clipPath><linearGradient
       x1="0"
       y1="0"
       x2="1"
       y2="0"
       gradientUnits="userSpaceOnUse"
       gradientTransform="matrix(77.5,134.23393,-43.11018,24.889666,1016.875,175.875)"
       spreadMethod="pad"
       id="linearGradient4781"><stop
         style="stop-opacity:1;stop-color:#00a028"
         offset="0"
         id="stop4783" /><stop
         style="stop-opacity:1;stop-color:#14b43c"
         offset="1"
         id="stop4785" /></linearGradient><clipPath
       clipPathUnits="userSpaceOnUse"
       id="clipPath4793"><path
         d="m 1026.149,166.708 c 30.158,20.097 61.157,35.846 92.996,47.248 l 0,0 c -31.141,-12.611 -61.675,-29.165 -91.602,-49.664 l 0,0 c 82.927,11.366 128.602,35.589 137.025,72.667 l 0,0 c -1.782,0.03 -3.557,0.045 -5.308,0.045 l 0,0 c -69.254,0.002 -113.618,-23.43 -133.111,-70.296"
         id="path4795"
         inkscape:connector-curvature="0" /></clipPath><linearGradient
       x1="0"
       y1="0"
       x2="1"
       y2="0"
       gradientUnits="userSpaceOnUse"
       gradientTransform="matrix(134.23393,77.5,-24.889677,43.110172,1027.625,164)"
       spreadMethod="pad"
       id="linearGradient4801"><stop
         style="stop-opacity:1;stop-color:#00a028"
         offset="0"
         id="stop4803" /><stop
         style="stop-opacity:1;stop-color:#14b43c"
         offset="1"
         id="stop4805" /></linearGradient><clipPath
       clipPathUnits="userSpaceOnUse"
       id="clipPath4813"><path
         d="m 1031,151.394 c 36.167,2.326 70.887,0.467 104.16,-5.579 l 0,0 c -33.273,4.65 -67.993,5.579 -104.16,2.79 l 0,0 c 77.5,-31.619 129.167,-33.48 155,-5.58 l 0,0 c -33.513,20.108 -64.008,30.162 -91.482,30.162 l 0,0 c -23.355,0 -44.526,-7.264 -63.518,-21.793"
         id="path4815"
         inkscape:connector-curvature="0" /></clipPath><linearGradient
       x1="0"
       y1="0"
       x2="1"
       y2="0"
       gradientUnits="userSpaceOnUse"
       gradientTransform="matrix(155,2.2e-6,-6.8e-6,49.779343,1031,148.3125)"
       spreadMethod="pad"
       id="linearGradient4821"><stop
         style="stop-opacity:1;stop-color:#00a028"
         offset="0"
         id="stop4823" /><stop
         style="stop-opacity:1;stop-color:#14b43c"
         offset="1"
         id="stop4825" /></linearGradient><linearGradient
       gradientUnits="userSpaceOnUse"
       y2="29"
       y1="39"
       x2="5"
       x1="5"
       id="h"
       gradientTransform="matrix(0.09004,0.122896,0.225312,-0.16508,463.90113,193.47549)"><stop
         id="stop5456"
         offset="0" /><stop
         id="stop5458"
         offset="1"
         stop-color="#8d8d97" /></linearGradient><linearGradient
       gradientUnits="userSpaceOnUse"
       y2="1010.6"
       y1="1036.4"
       x2="38.03"
       x1="42.727"
       id="i"
       gradientTransform="matrix(0.09004,0.122896,0.225312,-0.16508,241.21176,356.63396)"><stop
         id="stop5461"
         offset="0"
         stop-color="#936c06" /><stop
         id="stop5463"
         offset=".5"
         stop-color="#d89e18" /><stop
         id="stop5465"
         offset=".82954"
         stop-color="#fff8e8" /><stop
         id="stop5467"
         offset="1"
         stop-color="#ccc" /></linearGradient><linearGradient
       gradientUnits="userSpaceOnUse"
       y2="-1.9099"
       y1="29.152"
       x2="28.503"
       x1="28.642"
       id="j"><stop
         id="stop5470"
         offset="0"
         stop-color="#c4b18e" /><stop
         id="stop5472"
         offset=".27715"
         stop-color="#ffa500" /><stop
         id="stop5474"
         offset=".58242"
         stop-color="#ffd27f" /><stop
         id="stop5476"
         offset=".85937"
         stop-color="#ffe8bf" /><stop
         id="stop5478"
         offset="1"
         stop-color="#c8c8cf" /></linearGradient><linearGradient
       gradientUnits="userSpaceOnUse"
       y2="-.64721"
       y1="29.657"
       x2="190.76"
       x1="190.76"
       id="k"><stop
         id="stop5481"
         offset="0"
         stop-color="#727272" /><stop
         id="stop5483"
         offset=".43993"
         stop-opacity=".87451"
         stop-color="#c0c0c3" /><stop
         id="stop5485"
         offset=".63828"
         stop-opacity=".74902"
         stop-color="#f9f9ff" /><stop
         id="stop5487"
         offset=".7671"
         stop-opacity=".49804"
         stop-color="#fff" /><stop
         id="stop5489"
         offset="1"
         stop-color="#a0a0ac" /></linearGradient><radialGradient
       gradientUnits="userSpaceOnUse"
       gradientTransform="matrix(-1.6259,0.42569,-0.26206,-1.5335,607.59,900.74)"
       r="15.09"
       cy="7.8048"
       cx="238.36"
       id="l"><stop
         id="stop5492"
         offset="0"
         stop-color="#ff8d14" /><stop
         id="stop5494"
         offset=".46712"
         stop-opacity=".74902"
         stop-color="#f19b42" /><stop
         id="stop5496"
         offset=".79333"
         stop-opacity=".49804"
         stop-color="#ff8f1e" /><stop
         id="stop5498"
         offset="1"
         stop-color="#ea6e06" /></radialGradient></defs><sodipodi:namedview
     pagecolor="#ffffff"
     bordercolor="#666666"
     borderopacity="1"
     objecttolerance="10"
     gridtolerance="10"
     guidetolerance="10"
     inkscape:pageopacity="0"
     inkscape:pageshadow="2"
     inkscape:window-width="1818"
     inkscape:window-height="1054"
     id="namedview4259"
     showgrid="false"
     inkscape:zoom="2.2693333"
     inkscape:cx="1062.6368"
     inkscape:cy="227.24003"
     inkscape:window-x="0"
     inkscape:window-y="0"
     inkscape:window-maximized="1"
     inkscape:current-layer="g4265" /><g
     id="g4265"
     inkscape:groupmode="layer"
     inkscape:label="nature-2790294"
     transform="matrix(1.25,0,0,-1.25,0,1500)"><g
       clip-path="url(#clipPath4273)"
       id="g4271"
       transform="matrix(-1,0,0,1,500.48734,503.49329)"
       style="fill:none;stroke:#000000"><g
         id="g4277"
         style="fill:none;stroke:#000000"><g
           id="g4279"
           style="fill:none;stroke:#000000"><path
             style="fill:none;stroke:#000000;stroke-width:1.25"
             d="m 0.609375,90.632812 c 116.666245,9.999998 228.667505,6.66625 336.000005,-10 C 229.27688,102.29906 117.27562,108.96656 0.609375,100.63281 133.94312,213.96656 300.60938,203.96656 500.60938,70.632812 461.54688,23.757812 404.17398,0.3203125 328.49023,0.3203125 c -85.775,0 -195.06835,30.1037495 -327.880855,90.3124995"
             transform="matrix(-0.8,0,0,-0.8,500.48734,696.50671)"
             id="path4287"
             inkscape:connector-curvature="0"
             sodipodi:nodetypes="ccccsc" /></g></g></g><path
       id="path5167"
       style="fill:none;stroke:#000000"
       d="m 699.30552,964.18564 c 40.70184,-0.33011 74.48392,-38.22125 68.30105,-74.53077 -7.95227,-40.65405 -33.50463,-67.16931 -58.54002,-84.73802 -48.76458,-22.39419 -86.82785,-61.15811 -118.72463,-96.48653 m -1.82107,-0.91633 c 37.0541,102.20225 -35.14682,188.58013 60.2972,247.69296 18.63182,11.40666 34.76969,9.47154 50.43827,8.70812 M 690.58733,613.4095 c -53.81797,-129.1696 -97.27307,48.92946 -77.73389,94.35863 m -8.77385,-49.89015 c -87.40404,-160.10045 -23.72792,32.62647 -36.63908,111.48361 l 7.1e-4,0.004 c -11.28139,68.96436 -24.58033,96.49822 49.08673,161.279 M 685.08459,732.92607 C 695.5647,630.12585 624.4897,660.16532 607.1277,726.44797 M 760.79861,852.22195 C 826.64098,624.68883 660.89822,610.93804 689.43266,791.07471 M 838.14989,683.42924 c -5.2239,-91.10751 -31.828,-80.65815 -50.05575,-35.53113 m -128.66034,5.35174 c 22.69395,-38.20112 67.70842,-28.91897 70.14618,-18.3211 2.43837,10.6013 -19.8659,22.45624 -25.44145,18.7206 -5.57553,-3.73564 -8.48287,-9.98949 5.78756,-16.21299 -24.08376,1.26087 -23.65099,21.19705 -11.9042,25.18991 11.74906,3.99711 51.74069,-10.76385 44.97311,-34.6121 -6.7676,-23.84834 -78.86455,-18.48789 -83.5612,25.23568 z M 762.72323,935.2864 c 54.68823,-38.19694 91.03733,-105.6823 96.60523,-158.20965 5.56351,-52.52666 -22.01727,-154.11684 -64.9593,-30.10681 -6.73878,19.45773 -12.58421,36.30861 -17.62959,51.07884 m 1.37473,-63.36598 c 18.9124,-164.02575 1.60434,-185.78367 -76.49208,-125.22451"
       inkscape:connector-curvature="0" /><g
       transform="matrix(1,0,0,-1,-11.809636,-5.8166863)"
       style="font-style:normal;font-variant:normal;font-weight:normal;font-stretch:normal;font-size:16px;line-height:125%;font-family:'Great Vibes';-inkscape-font-specification:'Great Vibes';letter-spacing:0px;word-spacing:0px;fill:#000000;fill-opacity:1;stroke:none;stroke-width:1px;stroke-linecap:butt;stroke-linejoin:miter;stroke-opacity:1"
       id="text5303"><path
         id="path5326"
         d="m 197.38625,-300.93698 q -0.704,0 -1.088,-0.304 -0.384,-0.288 -0.384,-0.704 0,-0.416 0.24,-0.944 0.416,-0.816 1.504,-1.312 0.816,-0.384 2.16,-0.72 1.344,-0.32 1.728,-0.432 0.576,-1.008 1.376,-3.6 -0.928,1.632 -1.552,2.288 -0.624,0.656 -1.264,0.656 -0.864,0 -1.008,-0.72 -0.064,-0.112 -0.032,-0.336 0.032,-0.224 0.032,-0.32 0.016,-0.096 0.112,-0.304 0.096,-0.224 0.128,-0.32 0.176,-0.368 0.304,-0.576 -0.256,0 -0.144,-0.256 l 0.288,-0.56 q 0.544,-1.04 0.896,-1.76 0.16,-0.336 0.624,-0.336 l 0.976,0 q -0.032,0.032 -0.16,0.128 -0.288,0.192 -0.432,0.448 -0.576,0.992 -1.44,2.832 -0.352,0.752 -0.352,1.104 0,0.352 0.112,0.496 0.128,0.144 0.336,0.144 0.304,0 0.848,-0.64 1.136,-1.328 2.512,-4.176 0.176,-0.336 0.624,-0.336 l 0.864,0 q -0.416,0.288 -0.656,0.736 -0.24,0.432 -0.528,1.184 -0.272,0.752 -0.704,2 -0.416,1.248 -0.64,1.872 1.504,-0.448 2.304,-1.584 0.352,-0.496 1.008,-1.76 0.112,-0.224 0.192,-0.176 0.096,0.048 0.096,0.128 0,0.08 -0.272,0.624 -0.256,0.528 -0.528,0.992 -0.272,0.448 -0.704,0.928 -0.432,0.48 -0.96,0.752 -0.528,0.288 -1.408,0.608 -1.232,2.24 -2.48,3.296 -1.168,0.96 -2.528,0.96 z m -0.928,-1.584 q -0.176,0.352 -0.176,0.64 0,0.304 0.224,0.464 0.224,0.16 0.56,0.16 0.928,0 1.984,-0.96 1.056,-0.944 1.856,-2.032 l 0.352,-0.592 q -2.64,0.688 -3.328,0.992 -1.024,0.448 -1.472,1.328 z m 2.40625,-7.808 q -0.288,0.288 -0.816,1.312 -0.528,1.008 -0.64,1.52 -0.096,0.496 -0.096,0.816 0,0.304 0.24,0.304 0.304,0 0.752,-0.56 0.656,-0.816 1.296,-2.128 0.064,-0.144 0.144,-0.16 0.128,-0.048 0.128,0.096 0,0.08 -0.048,0.192 -1.472,2.976 -2.48,2.976 -0.464,0 -0.752,-0.448 -0.144,-0.24 -0.144,-0.64 0,-0.4 0.16,-0.976 -1.28,2.064 -2.208,2.064 -0.256,0 -0.464,-0.16 -0.48,-0.336 -0.48,-1.152 0,-1.568 1.36,-3.184 0.768,-0.896 1.888,-1.168 0.304,-0.08 0.576,-0.08 0.736,0 1.248,0.512 0.16,0.176 0.096,0.336 -0.064,0.16 -0.272,0.128 -0.176,-0.576 -0.768,-0.576 -0.688,0 -1.696,1.088 -0.576,0.64 -1.072,1.504 -0.624,1.04 -0.624,1.664 0,0.624 0.4,0.624 0.96,0 2.512,-2.944 0.304,-0.592 0.512,-0.8 0.208,-0.224 0.528,-0.224 0.064,0 0.32,0.048 0.272,0.048 0.4,0.016 z m -6.86025,-2.08 q 0,0.72 -0.912,1.36 0.32,0.016 0.848,0.016 0.544,0 1.36,-0.08 0.032,0.048 0.032,0.256 0,0.208 -0.192,0.624 -0.192,0.4 -0.352,0.704 -0.144,0.288 -0.288,0.56 -0.128,0.256 -0.304,0.64 -0.16,0.384 -0.272,0.704 -0.4,1.216 0.128,1.216 0.672,0 1.984,-2.672 0.112,-0.208 0.176,-0.16 0.08,0.048 0.08,0.128 0,0.064 -0.208,0.496 -0.208,0.416 -0.448,0.864 -0.24,0.448 -0.752,1.04 -0.608,0.736 -1.168,0.736 -0.624,0 -0.864,-0.752 -0.048,-0.144 -0.048,-0.432 0,-0.288 0.176,-0.768 0.192,-0.48 0.592,-1.168 0.4,-0.688 0.448,-0.8 0.048,-0.128 0.048,-0.24 0,-0.496 -1.28,-0.528 l -0.192,0.512 q -1.008,2.64 -1.936,3.536 -0.16,0.144 -0.16,-0.096 0,-0.048 0.032,-0.112 0.896,-1.184 1.552,-2.8 0.656,-1.616 0.912,-3.072 0.096,-0.496 0.448,-0.496 0.352,0 0.512,0.448 0.048,0.144 0.048,0.336 z m -4.623,0.816 q 1.168,0 1.168,1.472 0,0.672 -0.352,1.44 -0.448,1.04 -1.344,1.888 0.208,0.4 0.752,0.4 0.432,0 0.816,-0.432 0.48,-0.496 0.688,-0.864 0.208,-0.384 0.304,-0.56 0.096,-0.176 0.24,-0.496 0.16,-0.336 0.192,-0.4 0.032,-0.08 0.112,-0.08 0.16,-0.016 0.16,0.112 0,0.048 -0.032,0.112 l -0.096,0.224 q -0.096,0.224 -0.144,0.32 -0.048,0.096 -0.176,0.352 -0.112,0.24 -0.208,0.384 -0.08,0.144 -0.24,0.384 -0.144,0.24 -0.272,0.384 -0.112,0.144 -0.288,0.32 -0.176,0.176 -0.336,0.272 -0.4,0.24 -0.752,0.24 -0.656,0 -1.024,-0.416 -0.736,0.544 -1.36,0.544 -1.168,0 -1.168,-1.472 0,-0.672 0.352,-1.44 0.48,-1.12 1.344,-1.904 0.88,-0.784 1.664,-0.784 z m 0.176,0.496 q -0.432,0 -1.024,0.576 -0.592,0.576 -1.056,1.568 -0.56,1.152 -0.56,1.888 0,0.736 0.56,0.736 0.4,0 0.896,-0.432 -0.256,-0.368 -0.256,-0.784 0.032,-0.688 0.56,-0.688 0.208,0 0.336,0.144 0.144,0.144 0.144,0.272 0,0.112 -0.032,0.24 0.272,-0.4 0.624,-1.136 0.4,-0.816 0.4,-1.6 0,-0.784 -0.592,-0.784 z m -6.6755,3.824 q 0,-1.328 1.28,-4.448 l -0.832,0 q -0.08,0 -0.112,-0.08 -0.016,-0.096 0.016,-0.176 0.048,-0.096 0.128,-0.096 l 0.96,0 q 0.576,-1.264 1.072,-2.112 0.496,-0.848 0.912,-1.136 0.416,-0.304 0.592,-0.304 0.192,0 0.272,0.032 0.368,0.176 0.368,0.736 0,0.544 -0.368,1.328 -0.368,0.784 -0.72,1.456 l 0.768,0 q 0.08,0 0.096,0.096 0.032,0.08 -0.016,0.176 -0.032,0.08 -0.112,0.08 l -0.928,0 q -0.88,1.488 -2.128,2.64 l -0.368,1.632 q -0.048,0.208 -0.048,0.416 0,0.192 0.112,0.4 0.112,0.208 0.352,0.208 0.272,0 0.608,-0.192 0.768,-0.576 1.696,-2.416 0.064,-0.144 0.144,-0.176 0.096,-0.032 0.112,0.048 0.016,0.064 -0.048,0.224 -0.528,1.104 -0.832,1.568 -0.864,1.392 -1.84,1.392 -0.496,0 -0.816,-0.368 -0.32,-0.368 -0.32,-0.928 z m 3.216,-4.8 q 1.056,-1.888 1.056,-2.624 0,-0.32 -0.112,-0.32 -0.176,0 -0.544,0.512 -0.352,0.512 -1.2,2.432 l 0.8,0 z m -0.208,0.352 -0.752,0 q -0.192,0.448 -0.864,2.128 0.864,-0.896 1.616,-2.128 z m -4.60425,-0.688 q 0,0.72 -0.912,1.36 0.32,0.016 0.848,0.016 0.544,0 1.36,-0.08 0.032,0.048 0.032,0.256 0,0.208 -0.192,0.624 -0.192,0.4 -0.352,0.704 -0.144,0.288 -0.288,0.56 -0.128,0.256 -0.304,0.64 -0.16,0.384 -0.272,0.704 -0.4,1.216 0.128,1.216 0.672,0 1.984,-2.672 0.112,-0.208 0.176,-0.16 0.08,0.048 0.08,0.128 0,0.064 -0.208,0.496 -0.208,0.416 -0.448,0.864 -0.24,0.448 -0.752,1.04 -0.608,0.736 -1.168,0.736 -0.624,0 -0.864,-0.752 -0.048,-0.144 -0.048,-0.432 0,-0.288 0.176,-0.768 0.192,-0.48 0.592,-1.168 0.4,-0.688 0.448,-0.8 0.048,-0.128 0.048,-0.24 0,-0.496 -1.28,-0.528 l -0.192,0.512 q -1.008,2.64 -1.936,3.536 -0.16,0.144 -0.16,-0.096 0,-0.048 0.032,-0.112 0.896,-1.184 1.552,-2.8 0.656,-1.616 0.912,-3.072 0.096,-0.496 0.448,-0.496 0.352,0 0.512,0.448 0.048,0.144 0.048,0.336 z m -4.623,0.816 q 1.168,0 1.168,1.472 0,0.672 -0.352,1.44 -0.448,1.04 -1.344,1.888 0.208,0.4 0.752,0.4 0.432,0 0.816,-0.432 0.48,-0.496 0.688,-0.864 0.208,-0.384 0.304,-0.56 0.096,-0.176 0.24,-0.496 0.16,-0.336 0.192,-0.4 0.032,-0.08 0.112,-0.08 0.16,-0.016 0.16,0.112 0,0.048 -0.032,0.112 l -0.096,0.224 q -0.096,0.224 -0.144,0.32 -0.048,0.096 -0.176,0.352 -0.112,0.24 -0.208,0.384 -0.08,0.144 -0.24,0.384 -0.144,0.24 -0.272,0.384 -0.112,0.144 -0.288,0.32 -0.176,0.176 -0.336,0.272 -0.4,0.24 -0.752,0.24 -0.656,0 -1.024,-0.416 -0.736,0.544 -1.36,0.544 -1.168,0 -1.168,-1.472 0,-0.672 0.352,-1.44 0.48,-1.12 1.344,-1.904 0.88,-0.784 1.664,-0.784 z m 0.176,0.496 q -0.432,0 -1.024,0.576 -0.592,0.576 -1.056,1.568 -0.56,1.152 -0.56,1.888 0,0.736 0.56,0.736 0.4,0 0.896,-0.432 -0.256,-0.368 -0.256,-0.784 0.032,-0.688 0.56,-0.688 0.208,0 0.336,0.144 0.144,0.144 0.144,0.272 0,0.112 -0.032,0.24 0.272,-0.4 0.624,-1.136 0.4,-0.816 0.4,-1.6 0,-0.784 -0.592,-0.784 z m -3.645,-0.144 q -1.952,3.472 -1.952,4.48 0,0.448 0.304,0.448 0.384,0 0.88,-0.576 0.752,-0.912 1.312,-2.192 0.096,-0.224 0.192,-0.176 0.096,0.048 0.096,0.128 0,0.08 -0.16,0.4 -0.16,0.32 -0.256,0.512 -0.096,0.192 -0.432,0.736 -0.32,0.544 -0.56,0.8 -0.224,0.256 -0.592,0.512 -0.352,0.24 -0.816,0.24 -0.448,0 -0.768,-0.448 -0.144,-0.208 -0.144,-0.56 0,-0.368 0.16,-0.88 0.16,-0.512 0.88,-1.664 0.176,-0.288 0.176,-0.448 0,-0.176 -0.272,-0.176 -0.256,0 -0.944,0.64 -0.688,0.64 -1.456,1.728 -0.752,1.088 -0.896,1.744 -0.272,0 -0.4,-0.224 -0.128,-0.224 -0.128,-0.384 0,-0.656 0.88,-2.496 0.288,-0.608 0.304,-0.816 0.016,-0.224 -0.064,-0.224 -0.064,-0.016 -0.192,0.048 -0.288,0.144 -0.88,0.704 -1.12,1.024 -2.208,3.12 -0.08,0.176 -0.208,0.224 -0.112,0.032 -0.464,0.048 -0.352,0.016 -0.464,0.08 0.288,-0.56 1.008,-2.096 1.296,-2.752 1.728,-3.168 0.192,-0.192 0.528,-0.192 0.064,0 0.32,0.048 0.272,0.048 0.4,0.016 -0.592,0.32 -1.936,3.008 0.752,-0.928 1.072,-1.216 0.336,-0.288 0.496,-0.432 0.16,-0.144 0.24,-0.224 0.096,-0.08 0.256,-0.224 0.176,-0.16 0.256,-0.224 0.096,-0.08 0.256,-0.208 0.16,-0.128 0.24,-0.16 0.096,-0.048 0.24,-0.144 0.16,-0.096 0.224,-0.096 0.08,0 0.208,-0.032 0.128,-0.048 0.176,0.016 0.32,0.128 0.32,0.4 0,0.24 -0.544,1.232 -0.544,0.992 -0.704,1.312 0.704,-0.88 1.344,-1.44 0.64,-0.576 1.504,-1.056 0.88,-0.48 1.28,-0.48 0.096,0 0.16,0.032 z m -20.30725,10.304 q -0.704,0 -1.088,-0.304 -0.384,-0.288 -0.384,-0.704 0,-0.416 0.24,-0.944 0.416,-0.816 1.504,-1.312 0.816,-0.384 2.16,-0.72 1.344,-0.32 1.728,-0.432 0.576,-1.008 1.376,-3.6 -0.928,1.632 -1.552,2.288 -0.624,0.656 -1.264,0.656 -0.864,0 -1.008,-0.72 -0.064,-0.112 -0.032,-0.336 0.032,-0.224 0.032,-0.32 0.016,-0.096 0.112,-0.304 0.096,-0.224 0.128,-0.32 0.176,-0.368 0.304,-0.576 -0.256,0 -0.144,-0.256 l 0.288,-0.56 q 0.544,-1.04 0.896,-1.76 0.16,-0.336 0.624,-0.336 l 0.976,0 q -0.032,0.032 -0.16,0.128 -0.288,0.192 -0.432,0.448 -0.576,0.992 -1.44,2.832 -0.352,0.752 -0.352,1.104 0,0.352 0.112,0.496 0.128,0.144 0.336,0.144 0.304,0 0.848,-0.64 1.136,-1.328 2.512,-4.176 0.176,-0.336 0.624,-0.336 l 0.864,0 q -0.416,0.288 -0.656,0.736 -0.24,0.432 -0.528,1.184 -0.272,0.752 -0.704,2 -0.416,1.248 -0.64,1.872 1.504,-0.448 2.304,-1.584 0.352,-0.496 1.008,-1.76 0.112,-0.224 0.192,-0.176 0.096,0.048 0.096,0.128 0,0.08 -0.272,0.624 -0.256,0.528 -0.528,0.992 -0.272,0.448 -0.704,0.928 -0.432,0.48 -0.96,0.752 -0.528,0.288 -1.408,0.608 -1.232,2.24 -2.48,3.296 -1.168,0.96 -2.528,0.96 z m -0.928,-1.584 q -0.176,0.352 -0.176,0.64 0,0.304 0.224,0.464 0.224,0.16 0.56,0.16 0.928,0 1.984,-0.96 1.056,-0.944 1.856,-2.032 l 0.352,-0.592 q -2.64,0.688 -3.328,0.992 -1.024,0.448 -1.472,1.328 z m 1.63675,-7.824 q 0,-0.912 -0.752,-0.912 -0.064,0 -0.128,0 -0.288,0.032 -0.336,-0.112 -0.048,-0.144 0.144,-0.192 0.192,-0.048 0.416,-0.016 0.832,0.128 1.136,0.784 0.208,0.4 0.208,0.784 0,1.376 -1.008,2.704 -1.008,1.344 -2.608,1.344 -0.592,0 -0.96,-0.336 -0.368,-0.336 -0.368,-0.896 0,-0.672 0.768,-2.272 -1.312,2.48 -1.696,2.848 -0.16,0.144 -0.16,-0.096 0,-0.048 0.032,-0.112 0.56,-0.736 2.224,-4 1.68,-3.264 2.352,-4.272 0.544,-0.784 1.056,-0.784 0,0 0.016,0 l 0.08,0 q 0.016,0 0.272,0.048 0.272,0.048 0.4,0.016 -0.528,0.56 -1.664,2.24 -2.816,4.176 -2.816,6.24 0,0.848 0.544,0.96 0.048,0.016 0.112,0.016 0.496,0 1.232,-0.88 0.752,-0.896 1.232,-2.032 0.272,-0.592 0.272,-1.072 z"
         inkscape:connector-curvature="0" /></g><g
       id="g5588"
       inkscape:export-xdpi="191.55951"
       inkscape:export-ydpi="191.55951"><path
         id="path5519"
         d="m 470.66134,186.63381 1.12444,3.8978 2.25312,-1.6508 z"
         inkscape:connector-curvature="0"
         style="fill:#f9f9f9" /><path
         id="path5521"
         d="m 474.04791,188.87421 5.85472,3.26504 -6.75936,4.9524 c -0.32218,-1.34531 -0.7845,-3.61899 -1.34848,-6.56664 z"
         inkscape:connector-curvature="0"
         style="fill:url(#i)" /><path
         style="fill:url(#j);"
         inkscape:connector-curvature="0"
         transform="matrix(0.09004,0.122896,0.225312,-0.16508,481.01297,207.37933)"
         d="m -85,29 250,0 0,-30 -250,0 z"
         id="path5523" /><path
         style="fill:url(#k);"
         inkscape:connector-curvature="0"
         transform="matrix(0.09004,0.122896,0.225312,-0.16508,481.01297,207.37933)"
         d="m 165,-1 50,0 0,30 -50,0 z"
         id="path5525" /><path
         transform="matrix(0.09004,0.122896,0.225312,-0.16508,258.3236,370.5378)"
         style="fill:url(#l);"
         inkscape:connector-curvature="0"
         d="m 215,1016.3 c 0,0 20.437,0.6943 20.237,-2.3073 3.7935,-7.2863 2.1309,-16.936 0,-23.072 C 232.041,987.7518 215,988.6135 215,988.6135 Z"
         id="path5527" /></g><path
       id="celtic"
       style="fill:none;fill-rule:evenodd;stroke:#ff0000;stroke-width:1px;stroke-linecap:butt;stroke-linejoin:miter;stroke-opacity:1"
       inkscape:path-effect="#path-effect5661"
       inkscape:original-d="m 779.78848,205.5229 c -20.0016,-5.12264 -41.09039,-28.38344 -38.42537,-57.46182 2.66502,-29.07838 24.73695,-54.765979 52.87896,-55.34666 28.14201,-0.580681 55.86549,27.4249 60.28201,50.76387 4.41652,23.33897 3.50531,48.65473 -1.05755,71.91538 -4.56285,23.26065 -26.52064,45.32081 -55.69919,44.06582 -29.17855,-1.25499 -55.0874,-27.23179 -56.75676,-52.52648 -1.66936,-25.29469 25.37057,-55.95272 44.77085,-60.282 19.40028,-4.32928 42.96341,-1.95676 69.44772,-2.11518 26.48431,-0.15842 52.99766,34.01854 50.76381,60.9871 -2.23385,26.96856 -28.66251,52.55337 -59.22443,52.87895 -30.56193,0.32559 -50.93718,-35.26553 -52.87899,-54.64159 -1.94181,-19.37606 -6.68017,-40.57866 0,-67.33256 6.68017,-26.7539 33.48679,-44.686496 58.51942,-42.655684 25.03263,2.030812 53.51677,28.237264 53.23145,55.699204 -0.28532,27.46194 -27.93501,52.55855 -50.76379,56.40421 -22.82879,3.84566 -55.08654,4.77009 -75.08814,-0.35256 z" /></g></svg>